<svg width="328" height="244" viewBox="0 0 328 244" fill="none" xmlns="http://www.w3.org/2000/svg">
<path d="M328 214.424H0V214.588H328V214.424Z" fill="#D0D0D0"/>
<path d="M295.131 224.963H273.404V225.127H295.131V224.963Z" fill="#D0D0D0"/>
<path d="M217.281 226.744H211.58V226.908H217.281V226.744Z" fill="#D0D0D0"/>
<path d="M272.751 218.888H260.162V219.052H272.751V218.888Z" fill="#D0D0D0"/>
<path d="M62.7447 219.984H34.4121V220.148H62.7447V219.984Z" fill="#D0D0D0"/>
<path d="M72.7443 219.984H68.5918V220.148H72.7443V219.984Z" fill="#D0D0D0"/>
<path d="M147.7 222.749H86.2461V222.913H147.7V222.749Z" fill="#D0D0D0"/>
<path d="M155.469 185.213H28.8017C27.8094 185.211 26.8583 184.816 26.1573 184.115C25.4562 183.414 25.0625 182.464 25.0625 181.473V3.70688C25.0711 2.72189 25.4687 1.78007 26.1688 1.08601C26.8689 0.391945 27.8151 0.00168734 28.8017 0H155.469C156.462 0 157.415 0.393995 158.117 1.09531C158.82 1.79663 159.214 2.74781 159.214 3.73962V181.473C159.214 182.465 158.82 183.416 158.117 184.118C157.415 184.819 156.462 185.213 155.469 185.213ZM28.8017 0.130986C27.8529 0.13272 26.9435 0.510229 26.2733 1.18065C25.603 1.85107 25.2265 2.75962 25.2265 3.70688V181.473C25.2265 182.42 25.603 183.329 26.2733 183.999C26.9435 184.67 27.8529 185.047 28.8017 185.049H155.469C156.418 185.047 157.328 184.67 157.999 184C158.671 183.33 159.049 182.421 159.05 181.473V3.70688C159.049 2.75902 158.671 1.85049 157.999 1.18025C157.328 0.510017 156.418 0.132717 155.469 0.130986H28.8017Z" fill="#D0D0D0"/>
<path d="M297.367 185.213H170.693C169.7 185.211 168.748 184.817 168.046 184.116C167.344 183.415 166.949 182.465 166.947 181.473V3.70688C166.958 2.72129 167.357 1.77948 168.058 1.0856C168.759 0.391716 169.706 0.00166894 170.693 0H297.367C298.352 0.00340856 299.297 0.394428 299.995 1.08831C300.694 1.78219 301.091 2.72302 301.099 3.70688V181.473C301.099 182.463 300.706 183.412 300.007 184.113C299.307 184.814 298.358 185.209 297.367 185.213ZM170.693 0.130986C169.744 0.132717 168.834 0.510017 168.162 1.18025C167.491 1.85049 167.113 2.75902 167.111 3.70688V181.473C167.113 182.421 167.491 183.33 168.162 184C168.834 184.67 169.744 185.047 170.693 185.049H297.367C298.316 185.047 299.226 184.67 299.897 184C300.569 183.33 300.947 182.421 300.948 181.473V3.70688C300.947 2.75902 300.569 1.85049 299.897 1.18025C299.226 0.510017 298.316 0.132717 297.367 0.130986H170.693Z" fill="#D0D0D0"/>
<path d="M244.79 49.127H235.494V78.0157H244.79V49.127Z" fill="#D0D0D0"/>
<path d="M269.991 78.0072H239.146L234.488 44.1934H265.333L269.991 78.0072Z" fill="#E6EEEF"/>
<path d="M273.329 78.0072H241.474L236.816 44.1934H268.672L273.329 78.0072Z" fill="#E6EEEF"/>
<path d="M243.776 75.3401L239.854 46.8574H266.369L270.298 75.3401H243.776Z" fill="white"/>
<path d="M249.021 66.7182L247.545 56.0298C247.501 55.7478 247.519 55.4595 247.598 55.1852C247.677 54.9109 247.815 54.657 248.003 54.4413C248.19 54.2256 248.422 54.0533 248.683 53.9363C248.944 53.8193 249.227 53.7604 249.513 53.7638H259.149C259.632 53.7601 260.099 53.9335 260.462 54.2511C260.825 54.5687 261.058 55.0082 261.117 55.4863L262.587 66.1812C262.63 66.4628 262.611 66.7503 262.531 67.0238C262.452 67.2974 262.313 67.5503 262.126 67.7653C261.939 67.9802 261.707 68.1519 261.447 68.2685C261.187 68.3852 260.904 68.4439 260.619 68.4407H250.995C250.512 68.446 250.043 68.2733 249.679 67.9556C249.315 67.6379 249.08 67.1974 249.021 66.7182Z" fill="#E6EEEF"/>
<path d="M186.919 17.4795H47.9844V103.045H186.919V17.4795Z" fill="#D0D0D0"/>
<path d="M190.489 17.4795H49.6523V103.045H190.489V17.4795Z" fill="#E6EEEF"/>
<path d="M186.919 103.04H47.9844V109.661H186.919V103.04Z" fill="#D0D0D0"/>
<path d="M196.442 103.04H55.6055V109.661H196.442V103.04Z" fill="#E6EEEF"/>
<path d="M185.494 98.0495V22.458L54.6549 22.458V98.0495L185.494 98.0495Z" fill="#E6EEEF"/>
<path d="M64.2598 98.0495L93.5895 22.458H107.431L78.1014 98.0495H64.2598Z" fill="white"/>
<path d="M81.084 98.0495L110.414 22.458H115.806L86.4763 98.0495H81.084Z" fill="white"/>
<path d="M132.395 98.0495L161.724 22.458H167.117L137.793 98.0495H132.395Z" fill="white"/>
<path d="M185.492 98.0495V22.458H184.856V98.0495H185.492Z" fill="#D0D0D0"/>
<path d="M292.249 78.0137H262.834V214.421H292.249V78.0137Z" fill="#D0D0D0"/>
<path d="M289.288 214.425H292.247V206.022H286.186L289.288 214.425Z" fill="#E6EEEF"/>
<path d="M240.706 78.0137H211.291V214.421H240.706V78.0137Z" fill="#D0D0D0"/>
<path d="M292.25 78.0137H238.123V209.267H292.25V78.0137Z" fill="#E6EEEF"/>
<path d="M241.082 214.425H238.123V206.022H244.185L241.082 214.425Z" fill="#E6EEEF"/>
<path d="M289.953 80.4199H240.418V142.337H289.953V80.4199Z" fill="#D0D0D0"/>
<path d="M270.549 85.2439H259.824C257.518 85.2437 255.236 84.7744 253.118 83.8646C251 82.9547 249.09 81.6235 247.504 79.9521H282.869C281.284 81.6244 279.374 82.9563 277.256 83.8662C275.137 84.7761 272.855 85.2449 270.549 85.2439Z" fill="#E6EEEF"/>
<path d="M289.953 144.839H240.418V206.756H289.953V144.839Z" fill="#D0D0D0"/>
<path d="M270.549 149.663H259.824C257.518 149.663 255.236 149.193 253.118 148.284C251 147.374 249.09 146.042 247.504 144.371H282.869C281.284 146.043 279.374 147.375 277.256 148.285C275.137 149.195 272.855 149.664 270.549 149.663Z" fill="#E6EEEF"/>
<path d="M84.9551 121.092H133.906L141.004 149.954H92.0464L84.9551 121.092Z" fill="#D0D0D0"/>
<path d="M92.0391 149.953L92.2424 151.545H141.193L140.996 149.953H92.0391Z" fill="#D0D0D0"/>
<path d="M86.457 121.092H135.408L142.506 149.954H93.5484L86.457 121.092Z" fill="#E6EEEF"/>
<path d="M94.5891 148.628L88.1406 122.405H134.375L140.824 148.628H94.5891Z" fill="white"/>
<path d="M106.309 149.953L106.505 151.545H160.409L160.212 149.953H106.309Z" fill="#E6EEEF"/>
<path d="M172.708 151.543H166.844V214.416H172.708V151.543Z" fill="#D0D0D0"/>
<path d="M174.57 151.543H170.496V214.416H174.57V151.543Z" fill="#E6EEEF"/>
<path d="M100.258 158.743H175.836V151.546H100.258V158.743Z" fill="#E6EEEF"/>
<path d="M97.6205 158.743H91.7559V214.418H97.6205V158.743Z" fill="#D0D0D0"/>
<path d="M99.4761 158.743H95.4023V214.418H99.4761V158.743Z" fill="#E6EEEF"/>
<path d="M60.5111 158.743H54.6465V214.418H60.5111V158.743Z" fill="#D0D0D0"/>
<path d="M62.357 158.743H58.2832V214.418H62.357V158.743Z" fill="#E6EEEF"/>
<path d="M135.597 158.743H129.732V214.418H135.597V158.743Z" fill="#D0D0D0"/>
<path d="M137.445 158.743H133.371V214.418H137.445V158.743Z" fill="#E6EEEF"/>
<path d="M100.258 151.543H54.6465V158.741H100.258V151.543Z" fill="#D0D0D0"/>
<path d="M191.775 214.417H190.352L186.304 194.35L185.589 190.833L181.102 168.965H164.046L154.816 214.417H153.373L162.793 168.127C162.823 167.974 162.904 167.835 163.023 167.734C163.143 167.633 163.293 167.575 163.449 167.57H181.712C181.87 167.569 182.024 167.624 182.145 167.726C182.265 167.829 182.345 167.971 182.368 168.127L186.304 187.329L186.96 190.84L191.775 214.417Z" fill="#E6EEEF"/>
<path d="M219.162 214.423H217.732L208.483 168.971H191.427L186.959 190.846L186.303 194.356L182.216 214.423H180.793L185.588 190.846L186.297 187.342L190.233 168.14C190.264 167.987 190.345 167.849 190.464 167.748C190.583 167.647 190.733 167.589 190.889 167.583H209.093C209.249 167.588 209.399 167.645 209.519 167.746C209.638 167.848 209.719 167.986 209.749 168.14L219.162 214.423Z" fill="#E6EEEF"/>
<path d="M177.121 168.27H208.465C214.447 168.27 217.767 164.21 219.459 157.516L220.286 153.692C220.565 152.535 220.577 151.33 220.322 150.168C220.067 149.005 219.55 147.916 218.812 146.982C218.073 146.048 217.132 145.294 216.059 144.776C214.986 144.258 213.809 143.99 212.617 143.992H192.937C188.87 143.992 187.794 144.961 184.98 151.078C182.166 157.195 177.121 168.27 177.121 168.27Z" fill="#E6EEEF"/>
<path d="M194.209 168.27H160.805C160.39 168.27 159.991 168.105 159.697 167.811C159.403 167.518 159.238 167.12 159.238 166.705V166.56C159.238 165.998 159.349 165.441 159.564 164.921C159.78 164.402 160.096 163.93 160.494 163.532C160.893 163.134 161.366 162.819 161.886 162.603C162.407 162.388 162.964 162.277 163.528 162.277H194.209V168.276V168.27Z" fill="#E6EEEF"/>
<path d="M163.995 244C234.241 244 291.186 240.681 291.186 236.587C291.186 232.492 234.241 229.173 163.995 229.173C93.7485 229.173 36.8027 232.492 36.8027 236.587C36.8027 240.681 93.7485 244 163.995 244Z" fill="#E6EEEF"/>
<path d="M133.189 215.638L128.99 218.336L121.381 209.501L125.579 206.803L133.189 215.638Z" fill="#FC804C"/>
<path opacity="0.2" d="M125.586 206.803L121.381 209.501L125.31 214.059L129.509 211.354L125.586 206.803Z" fill="black"/>
<path d="M101.104 230.045L96.2762 230.517L91.2578 219.056L96.086 218.584L101.104 230.045Z" fill="#FC804C"/>
<path opacity="0.2" d="M91.2715 219.063L93.8561 224.971H98.8876L96.0931 218.592L91.2715 219.063Z" fill="black"/>
<path d="M64.4529 75.3224C62.0257 75.5385 61.9601 71.4256 57.6961 73.3576C52.2775 75.8201 54.1077 79.6383 49.8765 79.4812C45.6453 79.324 42.8114 82.6182 43.7561 85.0742C44.7007 87.5302 46.1636 89.8552 43.1722 90.8441C40.1809 91.833 38.1473 92.7041 38.5802 95.1797C39.0132 97.6553 41.1321 98.6508 37.5634 100.229C33.9948 101.808 34.3556 108.632 37.8521 108.638C41.3485 108.645 37.9964 112.044 41.1321 115.502C44.2677 118.96 49.0369 119.432 51.0245 117.729C53.0122 116.026 55.2295 114.618 58.9687 117.238C62.7079 119.857 69.0383 120.512 68.7496 116.36C68.461 112.208 64.8136 109.483 68.2511 107.322C71.6885 105.161 76.1231 104.093 74.7324 99.8886C73.8468 97.2689 71.1703 94.9898 73.3285 93.0316C76.8381 89.8486 76.8578 82.6444 72.5544 80.8172C70.0551 79.7628 72.4626 74.602 64.4529 75.3224Z" fill="black"/>
<path d="M59.7785 107.692C59.6604 109.656 59.4111 111.405 59.1225 113.245C58.8339 115.086 58.414 116.88 57.9352 118.681C57.4683 120.502 56.8743 122.288 56.1574 124.025C55.8031 124.903 55.3964 125.774 54.9635 126.645C54.747 127.077 54.5108 127.503 54.2681 127.922C54.1566 128.138 54.0188 128.348 53.8942 128.577L53.7039 128.885C53.5748 129.09 53.43 129.285 53.271 129.468C52.9071 129.878 52.4599 130.206 51.959 130.431C51.5115 130.633 51.0319 130.755 50.542 130.791C49.8216 130.832 49.0999 130.734 48.4166 130.503C47.399 130.153 46.4293 129.678 45.5302 129.088C43.9468 128.054 42.4486 126.895 41.0497 125.623C38.3528 123.174 35.8381 120.532 33.5254 117.718L35.3884 115.931C36.7004 117.083 38.0124 118.255 39.3835 119.369C40.7545 120.482 42.0927 121.602 43.49 122.643C44.8203 123.665 46.2235 124.589 47.6884 125.407C48.3078 125.758 48.969 126.028 49.6564 126.213C49.8218 126.264 49.9962 126.28 50.1681 126.259H50.0369C49.9502 126.301 49.8706 126.356 49.8008 126.422L49.7679 126.455C49.7679 126.455 49.7679 126.501 49.7679 126.455L49.9123 126.187C50.0041 126.01 50.1091 125.84 50.1943 125.656C50.378 125.294 50.5551 124.927 50.7257 124.556C51.0537 123.809 51.3817 123.05 51.6441 122.257C52.1951 120.685 52.6544 119.061 53.0611 117.411C53.4678 115.76 53.7761 114.077 54.0516 112.381C54.3271 110.685 54.5371 108.949 54.7076 107.338L59.7785 107.692Z" fill="#FC804C"/>
<path d="M63.5962 108.305C63.3338 109.89 62.0152 112.889 60.9722 115.116C60.1981 116.727 59.5683 117.939 59.5683 117.939L58.6499 117.533L51.0469 114.153C51.6242 110.06 52.5622 105.639 57.0821 103.629C59.9029 102.384 64.0619 105.449 63.5962 108.305Z" fill="#035857"/>
<path opacity="0.6" d="M63.5962 108.305C63.3338 109.89 62.0152 112.889 60.9722 115.116C60.1981 116.727 59.5683 117.939 59.5683 117.939L58.6499 117.533L51.0469 114.153C51.6242 110.06 52.5622 105.639 57.0821 103.629C59.9029 102.384 64.0619 105.449 63.5962 108.305Z" fill="black"/>
<path opacity="0.3" d="M60.9355 115.109C60.1614 116.72 59.5317 117.931 59.5317 117.931L58.6133 117.525C58.7379 115.908 59.0594 113.36 59.9253 112.214C60.4661 113.095 60.8107 114.083 60.9355 115.109Z" fill="black"/>
<path d="M35.6813 117.422L36.2848 113.015L31.332 114.613C31.332 114.613 32.1192 117.278 33.8839 118.372L35.6813 117.422Z" fill="#FC804C"/>
<path d="M34.0352 109.252L30.5781 111.145L31.326 114.642L36.2788 113.018L34.0352 109.252Z" fill="#FC804C"/>
<path d="M127.454 217.016L132.013 213.741C132.091 213.684 132.188 213.657 132.284 213.666C132.381 213.674 132.471 213.717 132.538 213.787L135.641 217.016C135.716 217.099 135.773 217.198 135.808 217.305C135.842 217.413 135.854 217.526 135.841 217.638C135.829 217.75 135.793 217.858 135.736 217.955C135.679 218.052 135.602 218.136 135.51 218.201C133.903 219.314 133.069 219.766 131.062 221.201C129.829 222.085 127.231 224.22 125.525 225.438C123.82 226.656 122.528 225.045 123.124 224.384C125.814 221.423 126.529 219.406 126.956 217.743C127.033 217.45 127.209 217.193 127.454 217.016Z" fill="black"/>
<path d="M95.6488 229.032H101.553C101.659 229.034 101.762 229.07 101.846 229.135C101.93 229.2 101.99 229.29 102.019 229.393L103.331 234.069C103.363 234.179 103.368 234.296 103.346 234.409C103.325 234.522 103.277 234.628 103.207 234.719C103.137 234.81 103.046 234.884 102.942 234.933C102.838 234.983 102.724 235.008 102.609 235.005C100.523 235.005 99.5324 235.005 96.9281 235.005H88.9642C86.7994 235.005 86.3402 232.818 87.2389 232.621C91.2536 231.737 93.5693 230.513 94.8092 229.347C95.0389 229.139 95.3391 229.027 95.6488 229.032Z" fill="black"/>
<path d="M86.6361 126.056L67.3038 132.16C53.9214 105.714 55.8304 104.312 55.8304 104.312C55.8304 104.312 58.9201 102.55 62.1345 101.083C62.62 100.861 63.112 100.645 63.5974 100.428C66.4532 99.2954 69.3865 98.3674 72.3747 97.6515C72.8142 97.5337 73.2537 97.4289 73.6867 97.3241C76.0664 96.7868 78.476 96.3909 80.9027 96.1387C81.1913 99.7997 81.48 102.898 81.7949 105.589C82.2016 109.1 82.6411 111.909 83.1069 114.339C83.9678 118.332 85.148 122.251 86.6361 126.056Z" fill="#035857"/>
<path opacity="0.6" d="M86.6361 126.056L67.3038 132.16C53.9214 105.714 55.8304 104.312 55.8304 104.312C55.8304 104.312 58.9201 102.55 62.1345 101.083C62.62 100.861 63.112 100.645 63.5974 100.428C66.4532 99.2954 69.3865 98.3674 72.3747 97.6515C72.8142 97.5337 73.2537 97.4289 73.6867 97.3241C76.0664 96.7868 78.476 96.3909 80.9027 96.1387C81.1913 99.7997 81.48 102.898 81.7949 105.589C82.2016 109.1 82.6411 111.909 83.1069 114.339C83.9678 118.332 85.148 122.251 86.6361 126.056Z" fill="black"/>
<path opacity="0.3" d="M83.1487 114.348C81.2922 111.729 79.5144 105.631 79.9736 103.346L81.8104 105.599C82.2171 109.109 82.6567 111.919 83.1487 114.348Z" fill="black"/>
<path d="M67.9961 109.254C67.9961 109.254 72.8702 108.2 74.438 110.315C76.5897 108.2 75.8287 99.9345 74.7923 96.9873C73.9703 97.1267 73.1639 97.346 72.3847 97.6422L68.9407 102.96L67.9961 109.254Z" fill="white"/>
<path d="M67.982 109.247C67.982 109.247 64.702 109.981 64.3544 112.659C59.7624 109.247 60.0838 104.25 61.1203 101.303C61.9071 100.923 62.7346 100.633 63.5869 100.438L67.0309 104.224L67.982 109.247Z" fill="white"/>
<path d="M69.1121 92.0732C69.7681 94.4833 70.7652 96.8672 72.3921 97.6531C72.3921 97.6531 73.9075 101.989 68.0035 109.239C61.824 104.844 63.6083 100.43 63.6083 100.43C66.5209 98.6814 65.7009 96.376 64.4611 94.3588L66.1732 91.6147C66.3438 91.3504 66.5876 91.1412 66.8749 91.0124C67.1623 90.8837 67.4809 90.841 67.792 90.8896C68.1032 90.9381 68.3936 91.0758 68.6279 91.2859C68.8622 91.496 69.0304 91.7695 69.1121 92.0732Z" fill="#FC804C"/>
<path opacity="0.2" d="M69.117 92.0815C69.0386 91.7727 68.8709 91.4937 68.6349 91.2793C68.3989 91.0649 68.1049 90.9245 67.7896 90.8757C67.4742 90.8268 67.1515 90.8716 66.8615 91.0045C66.5714 91.1374 66.327 91.3525 66.1585 91.623L65.6074 92.5006C65.6533 93.0835 65.6796 93.5616 65.673 93.8105C65.6205 95.5133 68.0149 95.4347 69.9633 94.616C69.616 93.7943 69.333 92.9469 69.117 92.0815Z" fill="black"/>
<path d="M57.2355 85.5028C58.9411 90.1462 59.5577 92.1502 62.6803 93.8662C67.3707 96.4531 72.7105 93.3488 72.435 88.2862C72.1857 83.7345 69.4437 76.897 64.2416 76.3928C63.0949 76.2768 61.9376 76.4554 60.8795 76.9114C59.8214 77.3675 58.8976 78.0859 58.1957 78.9986C57.4938 79.9112 57.0372 80.9878 56.8692 82.1261C56.7011 83.2644 56.8272 84.4268 57.2355 85.5028Z" fill="#FC804C"/>
<path d="M69.3017 78.5226C67.7011 76.9836 66.0217 75.1956 62.8073 75.5427C59.2518 75.9291 57.848 78.0773 57.848 78.0773L54.791 84.751C54.791 84.751 56.6869 93.3436 59.816 89.3354C61.62 87.017 61.6659 83.5132 61.0099 80.8935C62.2392 80.7204 63.4509 80.4399 64.631 80.0552C66.0742 80.5922 67.6945 80.5922 68.895 79.4919C69.1574 79.2496 69.3477 79.0597 69.4854 78.909L69.5969 78.7846C69.9512 78.3327 69.656 78.3786 69.3017 78.5226ZM65.1689 79.9111C66.2895 79.5492 67.4281 79.2454 68.5801 79.0007C68.1518 79.453 67.6061 79.7777 67.0037 79.9384C66.4014 80.0992 65.7662 80.0897 65.1689 79.9111Z" fill="black"/>
<path d="M57.4723 90.2208C57.9649 91.0451 58.7645 91.6409 59.6961 91.8778C60.9294 92.1856 61.5133 91.0788 61.1393 89.913C60.8048 88.8848 59.7617 87.4833 58.5153 87.6797C58.2459 87.7289 57.9931 87.845 57.7804 88.0173C57.5676 88.1895 57.4016 88.4125 57.2978 88.6655C57.1939 88.9186 57.1554 89.1937 57.1859 89.4655C57.2164 89.7372 57.3149 89.997 57.4723 90.2208Z" fill="#FC804C"/>
<path d="M67.3061 132.161C67.3061 132.161 66.6501 171.712 71.826 186.002C76.8116 199.703 91.6831 223.254 91.6831 223.254L100.303 223.038C100.303 223.038 86.6056 193.206 84.3687 181.418C80.6426 161.855 81.4626 127.714 81.4626 127.714L67.3061 132.161Z" fill="#035857"/>
<path opacity="0.3" d="M75.0352 135.573L77.3508 129.024L81.4508 127.714C81.4508 127.714 81.0769 143.255 81.9756 159.373C78.2561 152.221 75.0352 139.123 75.0352 135.573Z" fill="black"/>
<path d="M90.4613 223.701L101.108 223.432L100.491 220.164L88.8672 220.714L90.4613 223.701Z" fill="black"/>
<path d="M71.502 130.891C71.502 130.891 84.95 161.6 93.642 179.08C100.661 193.201 122.506 212.141 122.506 212.141L128.495 207.995C128.495 207.995 112.056 185.558 107.208 175.983C91.6936 145.345 95.5181 132.718 86.5965 126.058L71.502 130.891Z" fill="#035857"/>
<path d="M122.873 214.11L129.906 209.113L128.312 206.048L120.584 211.883L122.873 214.11Z" fill="black"/>
<path d="M86.5975 124.822L88.0144 126.276C88.1259 126.387 88.0144 126.577 87.7848 126.649L67.5079 133.047C67.3373 133.106 67.1667 133.047 67.1208 132.962L66.3992 131.286C66.3467 131.174 66.4648 131.024 66.6551 130.965L86.2367 124.776C86.2956 124.751 86.3599 124.743 86.4231 124.751C86.4864 124.759 86.5465 124.783 86.5975 124.822Z" fill="black"/>
<path d="M84.6321 127.846L85.1569 127.682C85.2619 127.682 85.3275 127.564 85.2947 127.505L84.3435 125.338C84.3153 125.302 84.2762 125.277 84.2322 125.266C84.1883 125.256 84.142 125.26 84.1007 125.279L83.5759 125.449C83.471 125.482 83.4054 125.56 83.4382 125.626L84.3959 127.787C84.4156 127.852 84.5206 127.879 84.6321 127.846Z" fill="#035857"/>
<path d="M69.0149 132.785L69.5397 132.622C69.6446 132.589 69.7037 132.51 69.6774 132.445L68.7197 130.277C68.7197 130.211 68.5819 130.192 68.477 130.225L67.9522 130.388C67.8538 130.421 67.7882 130.5 67.8144 130.565L68.7722 132.733C68.8018 132.766 68.8413 132.789 68.8849 132.799C68.9286 132.808 68.9741 132.803 69.0149 132.785Z" fill="#035857"/>
<path d="M76.8255 130.327L77.3503 130.163C77.4552 130.131 77.5208 130.052 77.488 129.986L76.5303 127.819C76.5303 127.76 76.3991 127.733 76.2941 127.766L75.7693 127.93C75.6643 127.93 75.5987 128.041 75.6315 128.107L76.5827 130.275C76.6155 130.327 76.7205 130.327 76.8255 130.327Z" fill="#035857"/>
<path d="M65.4116 84.497C65.5297 84.8834 65.8249 85.1519 66.0676 85.0602C66.3103 84.9685 66.4284 84.6083 66.3103 84.2284C66.1922 83.8486 65.9036 83.5735 65.6543 83.6652C65.405 83.7569 65.3001 84.0975 65.4116 84.497Z" fill="black"/>
<path d="M69.7649 83.1779C69.883 83.5643 70.1782 83.8328 70.4209 83.7412C70.6636 83.6495 70.7817 83.2958 70.6702 82.9094C70.5587 82.523 70.2569 82.2545 70.0142 82.3462C69.7715 82.4379 69.6534 82.7915 69.7649 83.1779Z" fill="black"/>
<path d="M69.9121 82.3981L70.7583 81.8545C70.7583 81.8545 70.5025 82.719 69.9121 82.3981Z" fill="black"/>
<path d="M68.6777 84.1836C69.2864 84.9586 69.9969 85.6481 70.7901 86.2335C70.6318 86.4309 70.4325 86.5916 70.206 86.7047C69.9795 86.8178 69.7312 86.8805 69.4781 86.8884L68.6777 84.1836Z" fill="#FC804C"/>
<path d="M68.1849 89.0138C68.203 88.9992 68.2164 88.9796 68.2234 88.9575C68.2304 88.9354 68.2307 88.9117 68.2242 88.8894C68.2151 88.8598 68.1952 88.8347 68.1686 88.8189C68.1419 88.8032 68.1103 88.798 68.0799 88.8042C67.6035 88.9596 67.0968 88.9996 66.6018 88.921C66.1068 88.8425 65.6376 88.6475 65.2329 88.3523C65.2208 88.342 65.2068 88.3342 65.1917 88.3292C65.1767 88.3243 65.1607 88.3224 65.1449 88.3236C65.1291 88.3248 65.1136 88.3291 65.0994 88.3363C65.0853 88.3435 65.0727 88.3534 65.0623 88.3654C65.052 88.3775 65.0441 88.3914 65.0392 88.4065C65.0343 88.4216 65.0323 88.4375 65.0336 88.4533C65.0348 88.4691 65.0391 88.4845 65.0463 88.4986C65.0535 88.5128 65.0634 88.5254 65.0754 88.5357C65.5105 88.8567 66.0161 89.0693 66.5501 89.1558C67.0841 89.2424 67.6311 89.2004 68.1455 89.0334L68.1849 89.0138Z" fill="black"/>
<path d="M63.7596 83.4206C63.7902 83.3919 63.8128 83.3558 63.8252 83.3158C63.9226 83.0362 64.0843 82.7833 64.2973 82.5775C64.5104 82.3716 64.7688 82.2185 65.0519 82.1304C65.0849 82.127 65.1167 82.1167 65.1454 82.1001C65.1741 82.0836 65.199 82.0612 65.2185 82.0344C65.2379 82.0076 65.2515 81.9771 65.2584 81.9447C65.2653 81.9123 65.2652 81.8789 65.2583 81.8465C65.2513 81.8142 65.2376 81.7836 65.2181 81.7569C65.1986 81.7302 65.1736 81.7079 65.1449 81.6914C65.1161 81.675 65.0842 81.6647 65.0513 81.6614C65.0183 81.658 64.985 81.6616 64.9535 81.672C64.5888 81.7761 64.2553 81.9679 63.9819 82.2305C63.7086 82.493 63.5039 82.8185 63.3857 83.1783C63.3741 83.2075 63.3685 83.2387 63.3692 83.2701C63.3699 83.3015 63.3769 83.3325 63.3897 83.3611C63.4025 83.3898 63.421 83.4156 63.4439 83.4371C63.4669 83.4586 63.4939 83.4752 63.5234 83.4861C63.5652 83.4947 63.6084 83.4932 63.6494 83.4818C63.6905 83.4704 63.7282 83.4494 63.7596 83.4206Z" fill="black"/>
<path d="M71.1021 80.7047C71.1 80.6895 71.1 80.6741 71.1021 80.6589C71.1103 80.5976 71.0953 80.5356 71.0602 80.4847C71.025 80.4339 70.9722 80.3979 70.9119 80.3838C70.5444 80.3057 70.1635 80.3161 69.8008 80.414C69.438 80.512 69.1038 80.6947 68.8258 80.947C68.7823 80.9922 68.7586 81.0528 68.7598 81.1154C68.761 81.178 68.7871 81.2376 68.8324 81.2811C68.8776 81.3245 68.9383 81.3482 69.001 81.347C69.0638 81.3457 69.1234 81.3197 69.1669 81.2745C69.3891 81.0781 69.6548 80.9371 69.9422 80.8631C70.2296 80.789 70.5304 80.7842 70.8201 80.8488C70.8766 80.8625 70.9361 80.8555 70.9879 80.8291C71.0397 80.8026 71.0802 80.7585 71.1021 80.7047Z" fill="black"/>
<path d="M83.8649 100.771C84.6455 101.354 85.3015 101.898 85.9838 102.487C86.666 103.077 87.2958 103.666 87.9518 104.282C89.231 105.513 90.4643 106.797 91.6319 108.146C92.8126 109.503 93.908 110.931 94.9119 112.423C95.1743 112.789 95.4039 113.189 95.6467 113.569C95.8894 113.949 96.1321 114.335 96.3486 114.741C96.5651 115.147 96.7947 115.507 97.0046 115.959L97.3523 116.686L97.6343 117.42C98.239 119.279 98.5229 121.228 98.474 123.183C98.4342 125 98.2388 126.809 97.8902 128.593C97.5491 130.341 97.103 132.051 96.5782 133.727C96.049 135.407 95.4315 137.057 94.7283 138.672L92.3535 137.794C92.7603 136.223 93.1473 134.572 93.4359 132.941C93.7565 131.326 93.9908 129.696 94.1379 128.056C94.2955 126.467 94.3328 124.869 94.2494 123.275C94.2024 122.519 94.1104 121.767 93.9739 121.022C93.8299 120.334 93.6303 119.66 93.3769 119.005L93.1735 118.553L92.9505 118.14C92.7734 117.839 92.5307 117.485 92.2945 117.151C92.0583 116.817 91.8615 116.496 91.6385 116.162C91.4155 115.828 91.1859 115.507 90.9366 115.193C89.9788 113.883 88.8964 112.691 87.8206 111.48C86.7447 110.268 85.5639 109.128 84.3635 108.015C83.7731 107.452 83.163 106.902 82.5529 106.365C81.9428 105.828 81.2868 105.29 80.7227 104.832L83.8649 100.771Z" fill="#FC804C"/>
<path d="M93.1144 136.228L89.5195 138.847L94.1115 141.27C94.1115 141.27 95.4826 138.847 95.043 136.824L93.1144 136.228Z" fill="#FC804C"/>
<path d="M88.3789 143.094L92.1378 144.253L94.1386 141.28L89.5138 138.856L88.3789 143.094Z" fill="#FC804C"/>
<path d="M80.9299 96.148C83.4424 96.0366 88.3821 102.199 88.3821 102.199L83.2522 109.443C83.2522 109.443 77.4925 104.858 77.0464 101.669C76.6725 98.9511 77.7287 96.279 80.9299 96.148Z" fill="#035857"/>
<path opacity="0.6" d="M80.9299 96.148C83.4424 96.0366 88.3821 102.199 88.3821 102.199L83.2522 109.443C83.2522 109.443 77.4925 104.858 77.0464 101.669C76.6725 98.9511 77.7287 96.279 80.9299 96.148Z" fill="black"/>
<path d="M125.726 219.064H125.648C125.533 219.05 125.423 219.005 125.331 218.935C125.239 218.865 125.167 218.771 125.123 218.665C125.088 218.602 125.07 218.533 125.07 218.461C125.07 218.39 125.088 218.321 125.123 218.258C125.444 217.708 127.248 217.604 127.452 217.604C127.474 217.603 127.497 217.609 127.517 217.621C127.536 217.632 127.552 217.649 127.563 217.669C127.576 217.688 127.583 217.711 127.583 217.735C127.583 217.758 127.576 217.781 127.563 217.8C127.124 218.285 126.343 219.064 125.726 219.064ZM127.17 217.865C126.448 217.918 125.49 218.088 125.326 218.376C125.308 218.402 125.299 218.433 125.299 218.465C125.299 218.496 125.308 218.527 125.326 218.553C125.354 218.625 125.4 218.688 125.46 218.736C125.52 218.784 125.591 218.816 125.667 218.828C126.015 218.868 126.566 218.507 127.17 217.865Z" fill="#035857"/>
<path d="M127.326 217.856C126.722 217.856 125.535 217.522 125.312 217.037C125.276 216.951 125.27 216.856 125.293 216.766C125.317 216.676 125.37 216.597 125.443 216.539C125.511 216.478 125.591 216.432 125.678 216.404C125.765 216.376 125.857 216.366 125.948 216.376C126.663 216.454 127.509 217.613 127.542 217.685C127.553 217.703 127.559 217.723 127.559 217.744C127.559 217.765 127.553 217.786 127.542 217.803C127.533 217.821 127.52 217.836 127.504 217.847C127.488 217.858 127.47 217.866 127.45 217.869L127.326 217.856ZM125.869 216.611C125.771 216.611 125.677 216.648 125.607 216.716C125.495 216.814 125.508 216.893 125.528 216.945C125.672 217.26 126.604 217.6 127.214 217.6C126.912 217.227 126.348 216.638 125.902 216.592L125.869 216.611Z" fill="#035857"/>
<path d="M93.0182 230.009C92.6141 230.038 92.2109 229.942 91.8636 229.734C91.7735 229.668 91.6996 229.582 91.6474 229.484C91.5951 229.385 91.5659 229.276 91.5619 229.164C91.5565 229.102 91.5676 229.04 91.5941 228.983C91.6206 228.927 91.6615 228.879 91.7127 228.843C92.2507 228.483 94.2646 229.393 94.6647 229.583C94.6871 229.593 94.7056 229.61 94.7174 229.631C94.7293 229.653 94.7338 229.677 94.7303 229.701C94.7282 229.726 94.7181 229.75 94.7016 229.769C94.6851 229.787 94.663 229.801 94.6385 229.806C94.1066 229.928 93.5637 229.996 93.0182 230.009ZM92.0801 228.987C91.9981 228.983 91.9164 229.001 91.8439 229.04C91.827 229.052 91.8137 229.07 91.8057 229.089C91.7976 229.109 91.7949 229.13 91.798 229.151C91.8005 229.228 91.8208 229.304 91.8572 229.372C91.8936 229.44 91.9452 229.499 92.0079 229.544C92.3556 229.806 93.1756 229.845 94.2318 229.649C93.5536 229.317 92.8276 229.094 92.0801 228.987Z" fill="#035857"/>
<path d="M94.6026 229.806H94.5632C93.9072 229.531 92.5427 228.451 92.5952 227.894C92.5952 227.776 92.6936 227.619 92.9954 227.586C94.1762 227.442 94.6747 229.551 94.6944 229.669C94.6988 229.69 94.6974 229.712 94.6905 229.733C94.6836 229.754 94.6714 229.772 94.6551 229.787C94.6397 229.798 94.6215 229.805 94.6026 229.806ZM93.1528 227.809H93.0741C92.9495 227.809 92.8839 227.861 92.8708 227.92C92.8314 228.241 93.7629 229.099 94.4451 229.472C94.268 228.955 93.8416 227.809 93.1528 227.809Z" fill="#035857"/>
<path d="M65.5566 83.6901L66.4029 83.1465C66.4029 83.1465 66.147 84.011 65.5566 83.6901Z" fill="black"/>
<path d="M189.34 35.8127H94.0037C92.9851 35.8057 91.9759 36.0072 91.0383 36.4045C90.1007 36.8019 89.2546 37.3868 88.552 38.1231C87.8495 38.8595 87.3055 39.7317 86.9536 40.686C86.6016 41.6403 86.4491 42.6564 86.5056 43.6718L95.4469 228.734C95.5743 230.842 96.4959 232.824 98.0267 234.282C99.5575 235.74 101.584 236.566 103.699 236.593H199.036C200.054 236.6 201.063 236.399 202 236.001C202.938 235.604 203.783 235.019 204.485 234.282C205.187 233.546 205.731 232.674 206.082 231.719C206.433 230.765 206.585 229.749 206.527 228.734L197.593 43.6718C197.465 41.5635 196.544 39.5815 195.013 38.1237C193.482 36.6659 191.456 35.8403 189.34 35.8127Z" fill="black"/>
<path d="M192.86 35.8127H97.4975C96.4792 35.8057 95.4703 36.0071 94.533 36.4046C93.5957 36.802 92.75 37.387 92.048 38.1235C91.346 38.8599 90.8026 39.7322 90.4514 40.6865C90.1002 41.6407 89.9486 42.6567 90.006 43.6718L98.9407 228.734C99.0681 230.842 99.9897 232.824 101.52 234.282C103.051 235.74 105.078 236.566 107.193 236.593H202.53C203.548 236.6 204.557 236.399 205.494 236.001C206.431 235.604 207.277 235.019 207.979 234.282C208.681 233.546 209.225 232.674 209.576 231.719C209.927 230.765 210.079 229.749 210.021 228.734L201.086 43.6718C200.959 41.568 200.042 39.5896 198.516 38.1325C196.991 36.6753 194.971 35.8468 192.86 35.8127Z" fill="black"/>
<path d="M106.917 231.354C106.215 231.337 105.544 231.059 105.036 230.574C104.528 230.09 104.219 229.434 104.169 228.735L95.2469 43.6724C95.231 43.3347 95.2838 42.9972 95.4021 42.6803C95.5205 42.3635 95.7019 42.0739 95.9355 41.829C96.1691 41.5842 96.45 41.3892 96.7613 41.2557C97.0725 41.1223 97.4076 41.0532 97.7463 41.0527H193.083C193.786 41.0675 194.458 41.3446 194.967 41.8295C195.476 42.3144 195.784 42.9718 195.831 43.6724L204.766 228.735C204.782 229.072 204.729 229.409 204.611 229.725C204.494 230.042 204.313 230.331 204.08 230.576C203.847 230.82 203.567 231.016 203.256 231.149C202.946 231.283 202.611 231.353 202.273 231.354H106.917Z" fill="#035857"/>
<path opacity="0.1" d="M106.88 230.037C106.529 230.026 106.195 229.886 105.941 229.644C105.687 229.403 105.531 229.077 105.502 228.728L96.5672 43.6653C96.5611 43.4972 96.5887 43.3295 96.6483 43.1721C96.708 43.0147 96.7985 42.8708 96.9146 42.7488C97.0307 42.6268 97.17 42.5291 97.3244 42.4616C97.4788 42.394 97.6451 42.358 97.8136 42.3555H193.15C193.501 42.3657 193.836 42.5051 194.09 42.7469C194.345 42.9887 194.5 43.3158 194.528 43.6653L203.462 228.728C203.469 228.896 203.441 229.063 203.381 229.221C203.322 229.378 203.231 229.522 203.115 229.644C202.999 229.766 202.86 229.864 202.705 229.931C202.551 229.999 202.385 230.035 202.216 230.037H106.88Z" fill="black"/>
<g opacity="0.3">
<path d="M135.654 219.405H116.768C116.249 219.399 115.752 219.197 115.377 218.84C115.002 218.482 114.777 217.996 114.747 217.479L113.369 188.853C113.352 188.6 113.388 188.346 113.473 188.107C113.559 187.868 113.693 187.65 113.868 187.465C114.042 187.281 114.253 187.134 114.486 187.035C114.72 186.935 114.972 186.885 115.226 186.888H134.145C134.662 186.892 135.158 187.093 135.532 187.449C135.907 187.806 136.131 188.291 136.159 188.807L137.517 217.44C137.533 217.693 137.497 217.947 137.41 218.186C137.324 218.425 137.189 218.643 137.014 218.828C136.839 219.012 136.628 219.158 136.394 219.258C136.16 219.357 135.908 219.407 135.654 219.405ZM115.2 187.556C115.036 187.555 114.874 187.587 114.723 187.65C114.572 187.713 114.435 187.806 114.321 187.923C114.209 188.043 114.123 188.184 114.066 188.338C114.01 188.492 113.985 188.656 113.993 188.82L115.377 217.44C115.395 217.791 115.546 218.121 115.8 218.364C116.053 218.607 116.39 218.745 116.741 218.75H135.654C135.818 218.751 135.981 218.719 136.133 218.654C136.284 218.59 136.42 218.495 136.534 218.376C136.647 218.257 136.734 218.116 136.79 217.962C136.847 217.807 136.871 217.643 136.861 217.479L135.477 188.853C135.46 188.503 135.31 188.172 135.058 187.929C134.805 187.685 134.47 187.547 134.119 187.543L115.2 187.556Z" fill="#E6EEEF"/>
<path d="M133.875 194.207H116.117C116.03 194.207 115.947 194.172 115.885 194.111C115.824 194.049 115.789 193.966 115.789 193.879C115.789 193.792 115.824 193.709 115.885 193.648C115.947 193.586 116.03 193.552 116.117 193.552H133.895C133.982 193.552 134.065 193.586 134.127 193.648C134.188 193.709 134.223 193.792 134.223 193.879C134.223 193.966 134.188 194.049 134.127 194.111C134.065 194.172 133.982 194.207 133.895 194.207H133.875Z" fill="#E6EEEF"/>
<path d="M134.056 197.898H116.271C116.185 197.896 116.102 197.861 116.041 197.8C115.98 197.739 115.945 197.657 115.943 197.571C115.943 197.484 115.978 197.4 116.039 197.339C116.101 197.278 116.184 197.243 116.271 197.243H134.056C134.143 197.243 134.226 197.278 134.287 197.339C134.349 197.4 134.384 197.484 134.384 197.571C134.382 197.657 134.347 197.739 134.286 197.8C134.224 197.861 134.142 197.896 134.056 197.898Z" fill="#E6EEEF"/>
<path d="M134.237 201.603H116.453C116.367 201.601 116.284 201.566 116.223 201.505C116.162 201.444 116.127 201.362 116.125 201.276C116.125 201.189 116.16 201.106 116.221 201.044C116.283 200.983 116.366 200.948 116.453 200.948H134.237C134.324 200.948 134.408 200.983 134.469 201.044C134.531 201.106 134.565 201.189 134.565 201.276C134.565 201.363 134.531 201.446 134.469 201.507C134.408 201.569 134.324 201.603 134.237 201.603Z" fill="#E6EEEF"/>
<path d="M134.397 205.307H116.619C116.532 205.307 116.449 205.273 116.387 205.211C116.326 205.15 116.291 205.067 116.291 204.98C116.291 204.893 116.326 204.81 116.387 204.748C116.449 204.687 116.532 204.652 116.619 204.652H134.397C134.484 204.652 134.567 204.687 134.629 204.748C134.69 204.81 134.725 204.893 134.725 204.98C134.725 205.067 134.69 205.15 134.629 205.211C134.567 205.273 134.484 205.307 134.397 205.307Z" fill="#E6EEEF"/>
<path d="M134.582 208.998H116.805C116.718 208.998 116.634 208.963 116.573 208.902C116.511 208.84 116.477 208.757 116.477 208.67C116.477 208.583 116.511 208.5 116.573 208.439C116.634 208.377 116.718 208.343 116.805 208.343H134.582C134.669 208.343 134.753 208.377 134.814 208.439C134.876 208.5 134.91 208.583 134.91 208.67C134.91 208.757 134.876 208.84 134.814 208.902C134.753 208.963 134.669 208.998 134.582 208.998Z" fill="#E6EEEF"/>
<path d="M131.121 212.705H116.984C116.897 212.705 116.814 212.67 116.752 212.609C116.691 212.547 116.656 212.464 116.656 212.377C116.656 212.29 116.691 212.207 116.752 212.146C116.814 212.084 116.897 212.05 116.984 212.05H131.121C131.208 212.05 131.291 212.084 131.353 212.146C131.414 212.207 131.449 212.29 131.449 212.377C131.447 212.464 131.412 212.546 131.351 212.607C131.29 212.668 131.208 212.703 131.121 212.705Z" fill="#E6EEEF"/>
</g>
<path opacity="0.2" d="M181.844 59.9736H116.9L123.231 191.031C123.54 196.4 125.879 201.451 129.776 205.164C133.673 208.877 138.836 210.975 144.223 211.032H209.167L202.843 79.9751C202.537 74.6038 200.198 69.5494 196.299 65.8357C192.4 62.1219 187.233 60.0264 181.844 59.9736Z" fill="black"/>
<path d="M197.746 59.9736H116.914C122.301 60.0296 127.465 62.1264 131.363 65.8396C135.26 69.5529 137.599 74.6055 137.906 79.9751L143.069 186.662C143.378 192.031 145.717 197.083 149.614 200.796C153.511 204.509 158.674 206.606 164.061 206.664H204.818C207.413 206.691 209.986 206.184 212.376 205.176C214.767 204.168 216.924 202.68 218.714 200.804C220.504 198.928 221.888 196.704 222.78 194.272C223.673 191.839 224.054 189.249 223.901 186.662L218.745 79.9751C218.439 74.6038 216.1 69.5494 212.201 65.8357C208.302 62.1219 203.135 60.0264 197.746 59.9736Z" fill="white"/>
<path d="M183.136 186.655C183.29 189.24 182.909 191.829 182.019 194.261C181.128 196.693 179.745 198.916 177.958 200.792C176.17 202.668 174.014 204.156 171.626 205.165C169.237 206.174 166.666 206.682 164.072 206.657H244.898C247.492 206.682 250.063 206.174 252.452 205.165C254.841 204.156 256.997 202.668 258.785 200.792C260.574 198.916 261.957 196.693 262.848 194.261C263.74 191.829 264.121 189.24 263.968 186.655H183.136Z" fill="#D0D0D0"/>
<path d="M209.135 126.19H152.011C151.61 126.186 151.226 126.03 150.937 125.754C150.647 125.478 150.473 125.103 150.449 124.703C150.439 124.512 150.467 124.319 150.534 124.139C150.6 123.958 150.703 123.794 150.836 123.654C150.969 123.515 151.129 123.404 151.306 123.329C151.483 123.254 151.674 123.216 151.866 123.217H208.991C209.396 123.214 209.786 123.367 210.082 123.644C210.377 123.921 210.555 124.3 210.578 124.703C210.589 124.898 210.56 125.092 210.492 125.274C210.424 125.457 210.319 125.623 210.183 125.762C210.047 125.902 209.884 126.012 209.704 126.086C209.524 126.16 209.33 126.195 209.135 126.19Z" fill="#035857"/>
<path d="M209.577 135.475H152.452C152.052 135.471 151.668 135.315 151.378 135.039C151.088 134.763 150.914 134.388 150.891 133.989C150.88 133.797 150.909 133.605 150.975 133.424C151.042 133.244 151.145 133.079 151.277 132.939C151.41 132.8 151.57 132.689 151.747 132.614C151.924 132.539 152.115 132.501 152.308 132.502H209.439C209.838 132.508 210.22 132.665 210.509 132.94C210.797 133.216 210.97 133.591 210.994 133.989C211.004 134.181 210.976 134.373 210.909 134.553C210.843 134.734 210.74 134.899 210.607 135.038C210.474 135.177 210.314 135.288 210.137 135.363C209.96 135.438 209.769 135.477 209.577 135.475Z" fill="#035857"/>
<path d="M210.025 144.741H152.894C152.493 144.737 152.109 144.581 151.819 144.305C151.53 144.029 151.356 143.653 151.332 143.254C151.322 143.062 151.35 142.87 151.417 142.69C151.483 142.509 151.586 142.344 151.719 142.205C151.851 142.066 152.011 141.955 152.189 141.88C152.366 141.805 152.557 141.766 152.749 141.768H209.913C210.314 141.772 210.697 141.928 210.987 142.204C211.277 142.48 211.451 142.855 211.474 143.254C211.485 143.449 211.456 143.644 211.387 143.827C211.319 144.009 211.213 144.176 211.077 144.316C210.94 144.456 210.777 144.565 210.595 144.639C210.414 144.712 210.22 144.747 210.025 144.741Z" fill="#035857"/>
<path d="M210.477 154.034H153.353C152.953 154.028 152.57 153.872 152.28 153.596C151.991 153.32 151.816 152.946 151.791 152.547C151.781 152.355 151.809 152.163 151.876 151.983C151.942 151.802 152.045 151.637 152.178 151.498C152.31 151.359 152.47 151.248 152.648 151.173C152.825 151.098 153.016 151.059 153.208 151.061H210.333C210.733 151.065 211.117 151.221 211.407 151.497C211.697 151.773 211.871 152.148 211.894 152.547C211.905 152.739 211.876 152.931 211.81 153.112C211.743 153.292 211.64 153.457 211.508 153.597C211.375 153.736 211.215 153.846 211.038 153.922C210.86 153.997 210.67 154.035 210.477 154.034Z" fill="#035857"/>
<path d="M188.208 163.317H153.794C153.393 163.313 153.01 163.157 152.72 162.881C152.43 162.605 152.256 162.23 152.233 161.83C152.222 161.638 152.251 161.446 152.317 161.266C152.384 161.085 152.486 160.92 152.619 160.781C152.752 160.642 152.912 160.531 153.089 160.456C153.266 160.381 153.457 160.343 153.65 160.344H188.063C188.464 160.348 188.848 160.504 189.138 160.78C189.427 161.056 189.601 161.431 189.625 161.83C189.635 162.022 189.607 162.215 189.54 162.395C189.474 162.575 189.371 162.74 189.238 162.88C189.105 163.019 188.946 163.13 188.768 163.205C188.591 163.28 188.4 163.318 188.208 163.317Z" fill="#035857"/>
<path d="M192.172 106.95C198.932 100.037 198.521 88.691 191.254 81.6088C183.987 74.5266 172.617 74.3896 165.857 81.3028C159.097 88.216 159.508 99.5616 166.775 106.644C174.042 113.726 185.412 113.863 192.172 106.95Z" fill="#035857"/>
<path d="M193.84 94.117C193.964 96.5508 193.465 98.976 192.39 101.164C191.225 103.51 189.421 105.481 187.185 106.85C184.949 108.219 182.372 108.932 179.749 108.905C177.036 108.885 174.374 108.16 172.026 106.803C169.678 105.446 167.723 103.503 166.354 101.164C165.076 99.0245 164.344 96.6048 164.222 94.117C164.108 92.2057 164.39 90.2916 165.049 88.4935C165.708 86.6954 166.73 85.0519 168.052 83.6649C169.374 82.278 170.968 81.1774 172.734 80.4314C174.5 79.6855 176.402 79.3102 178.319 79.3288C182.3 79.3781 186.114 80.931 188.993 83.6748C191.873 86.4187 193.605 90.1497 193.84 94.117Z" fill="white"/>
<path opacity="0.4" d="M192.384 101.169C191.219 103.515 189.415 105.486 187.179 106.855C184.943 108.225 182.366 108.937 179.743 108.91C177.03 108.89 174.368 108.166 172.02 106.809C169.672 105.451 167.717 103.508 166.348 101.169C170.123 98.5829 174.6 97.2117 179.179 97.2397C183.869 97.2484 188.455 98.6133 192.384 101.169Z" fill="#035857"/>
<path opacity="0.4" d="M183.615 93.7695C186.1 91.2278 185.95 87.0577 183.28 84.4552C180.61 81.8528 176.431 81.8035 173.945 84.3452C171.46 86.8868 171.61 91.057 174.28 93.6594C176.951 96.2619 181.13 96.3112 183.615 93.7695Z" fill="#035857"/>
<path d="M234.039 231.676H229.224L228.738 220.529H233.56L234.039 231.676Z" fill="#FC804C"/>
<path opacity="0.2" d="M228.754 220.534L228.997 226.278H233.818L233.569 220.534H228.754Z" fill="black"/>
<path d="M275.056 218.616L270.477 220.109L264.711 210.266L269.296 208.772L275.056 218.616Z" fill="#FC804C"/>
<path opacity="0.2" d="M269.296 208.772L264.711 210.266L267.689 215.341L272.268 213.848L269.296 208.772Z" fill="black"/>
<path d="M250.34 70.6904C250.937 71.4174 251.442 72.0658 251.96 72.7796C252.478 73.4935 252.97 74.1746 253.462 74.882C254.433 76.3031 255.365 77.7571 256.237 79.2569C258.053 82.2997 259.533 85.5298 260.652 88.8908L260.764 89.2183L260.816 89.3885L260.888 89.6571L261.02 90.1941L261.092 90.6853C261.169 91.2735 261.194 91.8676 261.164 92.4601C261.103 93.4594 260.958 94.4518 260.731 95.427C260.316 97.1741 259.765 98.8864 259.084 100.548C257.787 103.735 256.216 106.802 254.387 109.717L251.107 108.152C252.091 105.081 253.075 101.937 253.797 98.8784C254.173 97.404 254.458 95.908 254.65 94.3987C254.731 93.7471 254.755 93.0897 254.722 92.4339C254.712 92.2003 254.681 91.9679 254.63 91.7397L254.597 91.6218C254.585 91.6007 254.574 91.5788 254.565 91.5563L254.512 91.4319L254.407 91.1765L253.968 90.1483L253.476 89.1266C253.148 88.4717 252.787 87.7643 252.426 87.0832C251.678 85.7341 250.871 84.3915 250.032 83.0554C249.192 81.7194 248.3 80.4357 247.408 79.1259C246.515 77.816 245.538 76.5062 244.652 75.3208L250.34 70.6904Z" fill="#FC804C"/>
<path d="M251.404 107.335L249.521 111.493H254.907C254.907 111.493 255.767 108.337 253.812 107.06L251.404 107.335Z" fill="#FC804C"/>
<path d="M250.151 116.169L255.15 115.207L254.907 111.493H249.521L250.151 116.169Z" fill="#FC804C"/>
<path d="M226.473 49.5748C226.473 49.9678 226.27 50.2821 226.014 50.2821C225.758 50.2821 225.555 49.9678 225.555 49.5748C225.555 49.1818 225.765 48.874 226.014 48.874C226.263 48.874 226.473 49.1884 226.473 49.5748Z" fill="black"/>
<path d="M226.321 50.2715C225.859 51.4565 225.234 52.5718 224.465 53.5854C224.73 53.7752 225.033 53.9052 225.354 53.9663C225.675 54.0273 226.005 54.0181 226.321 53.9391V50.2715Z" fill="#E30000"/>
<path d="M227.842 47.4201C227.794 47.4207 227.748 47.4045 227.711 47.3743C227.483 47.2026 227.217 47.0866 226.936 47.0354C226.655 46.9843 226.365 46.9994 226.091 47.0796C226.036 47.0945 225.977 47.0885 225.927 47.0629C225.876 47.0372 225.837 46.9937 225.816 46.9407C225.796 46.8877 225.796 46.829 225.816 46.776C225.837 46.723 225.876 46.6795 225.927 46.6538C226.272 46.5443 226.639 46.5192 226.997 46.5807C227.354 46.6423 227.691 46.7887 227.98 47.0075C228.028 47.044 228.061 47.0977 228.071 47.1575C228.08 47.2172 228.067 47.2784 228.032 47.3284C228.01 47.357 227.981 47.3801 227.948 47.396C227.915 47.4119 227.879 47.4201 227.842 47.4201Z" fill="black"/>
<path d="M239.011 54.0381C238.315 57.5616 237.626 64.0126 240.093 66.3572C240.093 66.3572 239.129 69.9266 232.582 69.9266C225.366 69.9266 229.138 66.3572 229.138 66.3572C233.074 65.4207 232.969 62.5128 232.28 59.7752L239.011 54.0381Z" fill="#FC804C"/>
<path d="M241.043 67.5876C241.561 66.4611 242.132 65.1643 240.951 64.7583C239.639 64.3129 232.581 63.861 230.134 64.6993C229.812 64.7883 229.511 64.9403 229.249 65.1465C228.986 65.3526 228.767 65.6088 228.605 65.9001C228.443 66.1914 228.34 66.512 228.303 66.8433C228.266 67.1746 228.295 67.51 228.389 67.8299L241.043 67.5876Z" fill="black"/>
<path d="M269.491 221.254C269.137 221.595 268.737 221.87 268.435 221.824C268.34 221.805 268.253 221.757 268.186 221.686C268.119 221.616 268.075 221.527 268.061 221.431C268.041 221.357 268.038 221.279 268.051 221.203C268.065 221.127 268.095 221.055 268.14 220.992C268.533 220.383 270.108 220.121 270.193 220.115C270.214 220.111 270.235 220.114 270.255 220.122C270.275 220.13 270.292 220.143 270.304 220.16C270.317 220.179 270.323 220.2 270.323 220.223C270.323 220.245 270.317 220.266 270.304 220.285C270.068 220.635 269.795 220.96 269.491 221.254ZM268.422 221.005C268.387 221.037 268.357 221.072 268.33 221.11C268.303 221.148 268.286 221.191 268.278 221.236C268.27 221.281 268.272 221.328 268.284 221.372C268.336 221.575 268.435 221.595 268.468 221.595C268.802 221.647 269.517 220.94 269.957 220.39C269.406 220.479 268.882 220.69 268.422 221.005Z" fill="#035857"/>
<path d="M270.276 220.307L270.223 220.339C269.679 220.484 268.255 220.392 267.954 219.933C267.909 219.86 267.889 219.774 267.899 219.689C267.908 219.603 267.946 219.523 268.006 219.462C268.063 219.396 268.132 219.341 268.209 219.302C268.287 219.262 268.372 219.239 268.459 219.233C269.18 219.18 270.223 220.104 270.269 220.143C270.285 220.156 270.297 220.174 270.303 220.194C270.308 220.214 270.308 220.235 270.302 220.254C270.3 220.274 270.291 220.293 270.276 220.307ZM268.223 219.573L268.183 219.612C268.091 219.724 268.131 219.783 268.144 219.809C268.321 220.077 269.318 220.228 269.935 220.156C269.527 219.788 269.021 219.547 268.478 219.462C268.387 219.469 268.301 219.508 268.236 219.573H268.223Z" fill="#035857"/>
<path d="M227.287 231.917C226.671 231.917 226.074 231.832 225.877 231.557C225.824 231.485 225.795 231.397 225.795 231.308C225.795 231.218 225.824 231.131 225.877 231.059C225.916 230.992 225.968 230.934 226.03 230.888C226.092 230.842 226.163 230.809 226.238 230.791C227.038 230.574 228.724 231.531 228.796 231.576C228.817 231.587 228.833 231.605 228.843 231.626C228.852 231.648 228.854 231.672 228.849 231.694C228.845 231.716 228.835 231.737 228.82 231.753C228.805 231.77 228.785 231.781 228.763 231.786C228.276 231.871 227.782 231.915 227.287 231.917ZM226.526 230.987C226.452 230.977 226.377 230.977 226.303 230.987C226.257 230.996 226.213 231.015 226.175 231.042C226.137 231.069 226.104 231.104 226.08 231.144C226.002 231.288 226.028 231.36 226.08 231.4C226.303 231.707 227.523 231.714 228.416 231.59C227.831 231.268 227.189 231.063 226.526 230.987Z" fill="#035857"/>
<path d="M228.738 231.788H228.692C228.115 231.527 226.96 230.479 227.045 229.942C227.045 229.811 227.157 229.653 227.472 229.621C227.589 229.608 227.707 229.618 227.82 229.652C227.933 229.686 228.037 229.742 228.128 229.817C228.738 230.321 228.869 231.618 228.876 231.671C228.875 231.691 228.87 231.711 228.861 231.729C228.852 231.747 228.839 231.763 228.823 231.775C228.811 231.783 228.797 231.788 228.782 231.791C228.767 231.793 228.752 231.792 228.738 231.788ZM227.564 229.824H227.498C227.288 229.824 227.275 229.922 227.275 229.948C227.223 230.276 228.003 231.094 228.587 231.448C228.53 230.898 228.301 230.38 227.931 229.968C227.827 229.885 227.697 229.839 227.564 229.837V229.824Z" fill="#035857"/>
<path d="M270.079 219.577L274.015 215.838C274.084 215.77 274.174 215.729 274.269 215.72C274.365 215.712 274.461 215.737 274.54 215.792L278.187 218.228C278.276 218.287 278.349 218.366 278.402 218.458C278.456 218.55 278.487 218.653 278.495 218.759C278.502 218.865 278.486 218.971 278.446 219.07C278.407 219.169 278.345 219.257 278.266 219.328C276.882 220.638 276.141 221.169 274.422 222.806C273.359 223.821 270.197 227.259 268.734 228.661C267.271 230.063 265.697 228.792 266.169 228.091C268.295 224.941 269.62 221.922 269.738 220.33C269.759 220.047 269.88 219.78 270.079 219.577Z" fill="black"/>
<path d="M229.248 231.119H234.496C234.592 231.119 234.684 231.151 234.758 231.211C234.832 231.27 234.883 231.354 234.903 231.447L235.854 235.723C235.878 235.826 235.878 235.933 235.855 236.036C235.831 236.139 235.784 236.235 235.718 236.317C235.652 236.399 235.567 236.465 235.472 236.509C235.376 236.554 235.271 236.576 235.166 236.575C233.263 236.575 230.521 236.437 228.133 236.437C225.345 236.437 222.938 236.588 219.664 236.588C217.696 236.588 217.139 234.59 217.965 234.407C221.731 233.588 224.814 233.497 228.068 231.492C228.419 231.26 228.828 231.131 229.248 231.119Z" fill="black"/>
<path d="M222.383 77.2814C220.468 80.0976 218.493 82.7304 216.368 85.3304C214.234 87.9622 211.954 90.4724 209.539 92.849L208.607 93.7528L208.371 93.9755L208.2 94.1326L207.951 94.3095C207.642 94.5581 207.311 94.7774 206.961 94.9644C205.854 95.5476 204.635 95.8892 203.385 95.9664C201.479 96.0791 199.566 95.9203 197.704 95.4949C194.331 94.7521 191.06 93.6042 187.963 92.0762L189.17 88.6706C192.242 89.2836 195.348 89.708 198.472 89.9411C199.845 90.0494 201.226 89.9922 202.585 89.7708C202.976 89.7125 203.348 89.567 203.674 89.3451C203.707 89.3451 203.674 89.3058 203.674 89.3058L203.727 89.2535L203.917 89.0373L204.697 88.1859C206.744 85.8544 208.732 83.3657 210.66 80.8246C212.589 78.2835 214.524 75.6769 216.368 73.1357L222.383 77.2814Z" fill="#FC804C"/>
<path d="M248.725 67.4616C253.238 68.4964 258.421 80.7894 258.421 80.7894L249.348 86.9981C247.095 83.7654 245.097 80.3626 243.372 76.8205C240.682 71.1947 244.107 66.4007 248.725 67.4616Z" fill="#035857"/>
<path opacity="0.3" d="M245.494 75.3223L249.784 86.7245L249.358 87.0192C249.358 87.0192 247.502 84.3995 245.494 80.9088V75.3223Z" fill="black"/>
<path d="M221.729 67.7062C221.729 67.7062 216.599 73.4892 221.447 109.294H247.221C247.398 105.364 244.912 86.0703 248.73 67.4574C245.879 66.9099 242.995 66.5468 240.097 66.3702C236.448 66.1605 232.791 66.1605 229.142 66.3702C226.64 66.6219 224.161 67.0686 221.729 67.7062Z" fill="#035857"/>
<path opacity="0.3" d="M224.59 78.0518C223.92 82.1148 222.161 85.9212 219.5 89.0676C219.395 86.7623 219.355 84.6927 219.362 82.8393L224.59 78.0518Z" fill="black"/>
<path d="M226.82 71.6031C227.476 76.1549 218.463 87.7929 218.463 87.7929L209.43 81.5842C209.43 81.5842 211.936 75.1725 216.154 70.9679C220.975 66.1476 226.131 66.6454 226.82 71.6031Z" fill="#035857"/>
<path d="M189.804 89.0737L186.268 85.4258L182.496 90.2788C182.496 90.2788 185.369 93.0491 188.787 92.2436L189.804 89.0737Z" fill="#FC804C"/>
<path d="M181.407 83.3896L179.787 88.485L182.49 90.2533L186.262 85.4003L181.407 83.3896Z" fill="#FC804C"/>
<path d="M239.446 48.7602C239.151 53.5215 239.223 56.3312 236.822 58.774C233.194 62.4547 227.303 60.2738 226.169 55.4994C225.139 51.2162 225.795 44.143 230.465 42.2503C231.494 41.8282 232.614 41.6759 233.718 41.8078C234.823 41.9397 235.875 42.3514 236.775 43.0039C237.675 43.6563 238.393 44.5277 238.86 45.5352C239.328 46.5428 239.529 47.653 239.446 48.7602Z" fill="#FC804C"/>
<path d="M243.593 38.8067C245.062 40.1559 244.439 41.6622 243.672 41.9438C246.053 42.435 246.401 44.3278 245.148 48.3228C243.954 52.1476 241.061 57.2756 237.446 57.59C232.015 58.0615 230.427 52.4095 230.388 46.8034C227.318 46.9933 228.643 44.2754 224.871 44.9041C221.591 45.4477 222.824 42.8935 220.036 41.7801C216.802 40.4703 217.451 35.5256 220.469 36.9468C220.469 36.9468 219.072 37.8637 220.699 38.7282C222.325 39.5927 222.168 37.5951 225.389 37.3528C228.61 37.1105 228.984 39.8612 232.749 38.2042C237.472 36.1216 240.575 36.0233 243.593 38.8067Z" fill="black"/>
<path d="M241.789 41.9093C242.003 41.5663 242.323 41.3014 242.7 41.154C243.077 41.0065 243.491 40.9843 243.882 41.0906C245.358 41.405 245.476 42.0533 246.401 41.9682C247.326 41.8831 246.991 42.8654 246.991 42.8654C246.991 42.8654 246.742 42.1254 245.627 42.538C244.511 42.9506 243.783 41.942 243.304 42.3939C242.826 42.8458 241.789 41.9093 241.789 41.9093Z" fill="black"/>
<path d="M232.96 50.0449C232.75 51.2125 232.157 52.2771 231.274 53.0707C230.106 54.1055 229.096 53.2737 229.057 51.8591C229.057 50.582 229.601 48.4993 230.946 48.0016C232.291 47.5038 233.203 48.6303 232.96 50.0449Z" fill="#FC804C"/>
<path d="M230.586 109.287C230.586 109.287 236.057 146.048 239.061 159.801C242.341 174.865 265.203 214.946 265.203 214.946L273.6 212.222C273.6 212.222 255.396 176.109 253.52 161.17C251.48 144.961 247.222 109.261 247.222 109.261L230.586 109.287Z" fill="black"/>
<path d="M262.852 212.329C262.819 212.329 264.774 215.263 264.774 215.263L274.207 212.198L273.099 209.382L262.852 212.329Z" fill="#035857"/>
<path opacity="0.3" d="M234.05 122.39C240.374 123.628 239.705 147.173 238.944 159.282C237.121 150.723 234.451 134.251 232.627 122.561C233.068 122.344 233.57 122.284 234.05 122.39Z" fill="black"/>
<path d="M221.453 109.296C221.453 109.296 220.797 145.271 221.308 159.941C221.853 175.201 227.212 225.172 227.212 225.172H235.38C235.38 225.172 235.675 176.092 236.036 161.107C236.429 144.734 238.404 109.296 238.404 109.296H221.453Z" fill="black"/>
<path d="M225.617 221.921C225.578 221.921 226.077 225.307 226.077 225.307H236.008L236.277 222.288L225.617 221.921Z" fill="#035857"/>
</svg>
